<?xml version="1.0" encoding="UTF-8"?>
<svg width="100px" height="13px" fill="#FFF" viewBox="0 0 100 13" version="1.1" xmlns="http://www.w3.org/2000/svg" xmlns:xlink="http://www.w3.org/1999/xlink">
    <!-- Generator: Sketch 53.2 (72643) - https://sketchapp.com -->
    <title>inep-enem-logo-responsivo</title>
    <desc>Created with Sketch.</desc>
    <g id="Page-1" stroke-width="1" fill-rule="evenodd" >
        <g id="inep-enem-logo-responsivo">
            <path d="M81.8973392,6.2234193 C81.8973392,2.95330351 80.0050998,0.236408421 76.2878049,0.236408421 C72.9290466,0.236408421 70.3915743,2.95330351 70.3915743,6.7382193 C70.3915743,10.4847281 72.9290466,12.890914 76.3949002,12.890914 C79.3073171,12.890914 81.254102,11.2383632 81.8447894,8.5198807 L80.0050998,8.30013509 C79.5210643,10.1358719 78.3791574,11.0920333 76.4303769,11.1095263 C74.3412417,11.1095263 72.7152993,9.45697544 72.608204,7.12393158 L81.8971175,7.12393158 L81.8971175,6.2234193 L81.8973392,6.2234193 Z M72.6607539,5.63545439 C72.9290466,3.65126667 74.1800443,1.96239561 76.2878049,1.96239561 C78.5026608,1.96239561 79.5567627,3.70746316 79.6279379,5.63545439 L72.6607539,5.63545439 Z M59.6713969,6.2234193 C59.6713969,2.95330351 57.7771619,0.236408421 54.0616408,0.236408421 C50.7028825,0.236408421 48.1654102,2.95330351 48.1654102,6.7382193 C48.1654102,10.4847281 50.7028825,12.890914 54.1687361,12.890914 C57.0813747,12.890914 59.0279379,11.2383632 59.6186253,8.5198807 L57.7769401,8.30013509 C57.295122,10.1358719 56.1527716,11.0920333 54.2042129,11.1095263 C52.1150776,11.1095263 50.4891353,9.45697544 50.3802661,7.12393158 L59.6713969,7.12393158 L59.6713969,6.2234193 Z M50.4350333,5.63545439 C50.7031042,3.65126667 51.954102,1.96239561 54.0620843,1.96239561 C56.2767184,1.96239561 57.3308204,3.70746316 57.4019956,5.63545439 L50.4350333,5.63545439 Z M66.0141907,0.217323737 C64.281153,0.217323737 62.7097561,1.22757175 62.1374723,2.67945965 L62.1374723,0.529592632 L59.9226164,0.529592632 L59.9226164,12.5248386 L62.1374723,12.5248386 L62.1563193,5.65481754 C62.1563193,3.4508614 63.5496674,2.03556053 65.2997783,2.03556053 C67.1394678,2.03556053 68.0696231,3.30241053 68.0696231,5.30568772 L68.0696231,12.5420579 L70.2844789,12.5420579 L70.2844789,5.1031614 C70.2844789,2.31124035 69.0523282,0.217323737 66.0141907,0.217323737 Z" id="Shape" fill-rule="nonzero"></path>
            <path d="M99.9261641,5.10318421 L99.9261641,12.5421035 L97.7095344,12.5421035 L97.7095344,5.30573333 C97.7095344,3.30245614 96.9068736,2.03559246 95.1195122,2.03559246 C93.4764967,2.03559246 92.1356984,3.45090702 92.1356984,5.65484035 L92.1356984,12.5423772 L89.9208426,12.5423772 L89.9208426,5.30598421 C89.9208426,3.30270702 89.116408,2.03585702 87.3290466,2.03585702 C85.6676275,2.03585702 84.3638581,3.45115789 84.3638581,5.65511404 L84.3638581,12.5426281 L82.1490022,12.5426281 L82.1490022,0.547655789 L84.3638581,0.547655789 L84.3638581,2.69752281 C84.9356984,1.24748456 86.2937916,0.237238596 88.0809313,0.237238596 C90.1702882,0.237238596 91.402439,1.28433158 91.9031042,2.84410351 C92.5108647,1.35749649 93.9587583,0.237231754 95.8170732,0.217880684 C98.8532151,0.217350421 99.9261641,2.38445088 99.9261641,5.10318421 Z" id="Path" fill-rule="nonzero"></path>
            <polygon id="Path" points="0.00470957871 0.38236193 3.63509978 0.38236193 3.63509978 3.38424211 0.00470957871 3.38424211"></polygon>
            <polygon id="Path" points="0.00470957871 4.61219474 3.63509978 4.61219474 3.63509978 12.6626386 0.00470957871 12.6626386"></polygon>
            <polygon id="Path" points="4.90909091 4.5438193 8.79450111 4.5438193 8.79450111 12.6626614 4.90909091 12.6626614"></polygon>
            <polygon id="Path" points="12.7433259 4.5438193 16.3737251 4.5438193 16.3737251 12.6626614 12.7433259 12.6626614"></polygon>
            <path d="M4.90909091,0.382195439 L13.0617517,0.382195439 C14.7766519,0.501220702 15.8804656,1.6212186 16.2466075,3.38670526 L4.90909091,3.38380877 L4.90909091,0.382195439 Z" id="Path"></path>
            <polygon id="Path" points="17.5839911 0.382195439 28.5390244 0.382195439 28.5390244 3.38405965 17.5839911 3.38405965"></polygon>
            <polygon id="Path" points="17.5839911 4.5438193 28.475388 4.5438193 28.475388 7.95495088 21.2143902 7.95495088 21.2143902 9.25123333 28.5390244 9.25123333 28.5390244 12.6626614 17.5891574 12.6626614"></polygon>
            <path d="M29.5580931,0.382188596 L37.7108647,0.382188596 C39.3991131,0.355944561 40.8472284,1.37706263 41.0554324,3.38403684 L29.5580931,3.38403684 L29.5580931,0.382188596 Z" id="Path"></path>
            <path d="M29.5580931,4.61219474 L41.0864745,4.61219474 C40.916408,6.35592807 39.6028825,7.73333509 37.7108647,7.95495088 L33.443459,7.95495088 L33.443459,12.6589439 L29.5580931,12.6589439 L29.5580931,4.61219474 Z" id="Path"></path>
        </g>
    </g>
</svg>
